<mxfile host="app.diagrams.net" agent="Mozilla/5.0 (Windows NT 10.0; Win64; x64) AppleWebKit/537.36 (KHTML, like Gecko) Chrome/129.0.0.0 Safari/537.36 Edg/129.0.0.0" version="24.7.16">
  <diagram id="prtHgNgQTEPvFCAcTncT" name="Page-1">
    <mxGraphModel dx="1042" dy="695" grid="1" gridSize="10" guides="1" tooltips="1" connect="1" arrows="1" fold="1" page="1" pageScale="1" pageWidth="827" pageHeight="1169" math="0" shadow="0">
      <root>
        <mxCell id="0" />
        <mxCell id="1" parent="0" />
        <mxCell id="-1uGAca-wLTkCwMJhFo_-1" value="1" style="rounded=1;whiteSpace=wrap;html=1;strokeWidth=3;strokeColor=#66CC00;" vertex="1" parent="1">
          <mxGeometry x="130" y="370" width="80" height="50" as="geometry" />
        </mxCell>
        <mxCell id="-1uGAca-wLTkCwMJhFo_-2" value="2" style="rounded=1;whiteSpace=wrap;html=1;strokeWidth=3;strokeColor=#66CC00;" vertex="1" parent="1">
          <mxGeometry x="130" y="300" width="80" height="50" as="geometry" />
        </mxCell>
        <mxCell id="-1uGAca-wLTkCwMJhFo_-3" value="3" style="rounded=1;whiteSpace=wrap;html=1;strokeColor=#66CC00;strokeWidth=3;" vertex="1" parent="1">
          <mxGeometry x="130" y="230" width="80" height="50" as="geometry" />
        </mxCell>
        <mxCell id="-1uGAca-wLTkCwMJhFo_-4" value="4" style="rounded=1;whiteSpace=wrap;html=1;strokeColor=#66CC00;strokeWidth=3;" vertex="1" parent="1">
          <mxGeometry x="130" y="160" width="80" height="50" as="geometry" />
        </mxCell>
        <mxCell id="-1uGAca-wLTkCwMJhFo_-5" value="" style="line;strokeWidth=2;direction=south;html=1;" vertex="1" parent="1">
          <mxGeometry x="210" y="100" width="10" height="360" as="geometry" />
        </mxCell>
        <mxCell id="-1uGAca-wLTkCwMJhFo_-6" value="" style="line;strokeWidth=2;direction=south;html=1;" vertex="1" parent="1">
          <mxGeometry x="120" y="100" width="10" height="360" as="geometry" />
        </mxCell>
        <mxCell id="-1uGAca-wLTkCwMJhFo_-23" value="front" style="text;html=1;align=center;verticalAlign=middle;resizable=0;points=[];autosize=1;strokeColor=none;fillColor=none;fontSize=16;fontStyle=1" vertex="1" parent="1">
          <mxGeometry x="40" y="350" width="60" height="30" as="geometry" />
        </mxCell>
        <mxCell id="-1uGAca-wLTkCwMJhFo_-24" value="back" style="text;html=1;align=center;verticalAlign=middle;resizable=0;points=[];autosize=1;strokeColor=none;fillColor=none;fontSize=16;fontStyle=1;labelBackgroundColor=default;" vertex="1" parent="1">
          <mxGeometry x="30" y="140" width="60" height="30" as="geometry" />
        </mxCell>
        <mxCell id="-1uGAca-wLTkCwMJhFo_-25" value="" style="endArrow=classic;html=1;rounded=0;entryX=0.17;entryY=0.976;entryDx=0;entryDy=0;entryPerimeter=0;" edge="1" parent="1">
          <mxGeometry width="50" height="50" relative="1" as="geometry">
            <mxPoint x="26.4" y="395.6" as="sourcePoint" />
            <mxPoint x="129.99999999999991" y="394.4" as="targetPoint" />
          </mxGeometry>
        </mxCell>
        <mxCell id="-1uGAca-wLTkCwMJhFo_-27" value="" style="endArrow=classic;html=1;rounded=0;entryX=0.17;entryY=0.976;entryDx=0;entryDy=0;entryPerimeter=0;" edge="1" parent="1">
          <mxGeometry width="50" height="50" relative="1" as="geometry">
            <mxPoint x="26.4" y="180" as="sourcePoint" />
            <mxPoint x="129.99999999999991" y="178.79999999999995" as="targetPoint" />
          </mxGeometry>
        </mxCell>
        <mxCell id="-1uGAca-wLTkCwMJhFo_-29" value="" style="rounded=1;whiteSpace=wrap;html=1;strokeWidth=3;strokeColor=#666666;fillColor=#666666;" vertex="1" parent="1">
          <mxGeometry x="443.6" y="370" width="80" height="50" as="geometry" />
        </mxCell>
        <mxCell id="-1uGAca-wLTkCwMJhFo_-30" value="2" style="rounded=1;whiteSpace=wrap;html=1;strokeWidth=3;strokeColor=#66CC00;" vertex="1" parent="1">
          <mxGeometry x="443.6" y="300" width="80" height="50" as="geometry" />
        </mxCell>
        <mxCell id="-1uGAca-wLTkCwMJhFo_-31" value="3" style="rounded=1;whiteSpace=wrap;html=1;strokeColor=#66CC00;strokeWidth=3;" vertex="1" parent="1">
          <mxGeometry x="443.6" y="230" width="80" height="50" as="geometry" />
        </mxCell>
        <mxCell id="-1uGAca-wLTkCwMJhFo_-32" value="4" style="rounded=1;whiteSpace=wrap;html=1;strokeColor=#66CC00;strokeWidth=3;" vertex="1" parent="1">
          <mxGeometry x="443.6" y="160" width="80" height="50" as="geometry" />
        </mxCell>
        <mxCell id="-1uGAca-wLTkCwMJhFo_-33" value="" style="line;strokeWidth=2;direction=south;html=1;" vertex="1" parent="1">
          <mxGeometry x="523.6" y="100" width="10" height="360" as="geometry" />
        </mxCell>
        <mxCell id="-1uGAca-wLTkCwMJhFo_-34" value="" style="line;strokeWidth=2;direction=south;html=1;" vertex="1" parent="1">
          <mxGeometry x="433.6" y="100" width="10" height="360" as="geometry" />
        </mxCell>
        <mxCell id="-1uGAca-wLTkCwMJhFo_-35" value="front" style="text;html=1;align=center;verticalAlign=middle;resizable=0;points=[];autosize=1;strokeColor=none;fillColor=none;fontSize=16;fontStyle=1" vertex="1" parent="1">
          <mxGeometry x="353.6" y="300" width="60" height="30" as="geometry" />
        </mxCell>
        <mxCell id="-1uGAca-wLTkCwMJhFo_-36" value="back" style="text;html=1;align=center;verticalAlign=middle;resizable=0;points=[];autosize=1;strokeColor=none;fillColor=none;fontSize=16;fontStyle=1;labelBackgroundColor=default;" vertex="1" parent="1">
          <mxGeometry x="343.6" y="140" width="60" height="30" as="geometry" />
        </mxCell>
        <mxCell id="-1uGAca-wLTkCwMJhFo_-37" value="" style="endArrow=classic;html=1;rounded=0;entryX=0.17;entryY=0.976;entryDx=0;entryDy=0;entryPerimeter=0;" edge="1" parent="1">
          <mxGeometry width="50" height="50" relative="1" as="geometry">
            <mxPoint x="340" y="345.6" as="sourcePoint" />
            <mxPoint x="443.5999999999999" y="344.4" as="targetPoint" />
          </mxGeometry>
        </mxCell>
        <mxCell id="-1uGAca-wLTkCwMJhFo_-38" value="" style="endArrow=classic;html=1;rounded=0;entryX=0.17;entryY=0.976;entryDx=0;entryDy=0;entryPerimeter=0;" edge="1" parent="1">
          <mxGeometry width="50" height="50" relative="1" as="geometry">
            <mxPoint x="340" y="180" as="sourcePoint" />
            <mxPoint x="443.5999999999999" y="178.79999999999995" as="targetPoint" />
          </mxGeometry>
        </mxCell>
        <mxCell id="-1uGAca-wLTkCwMJhFo_-39" value="" style="rounded=0;whiteSpace=wrap;html=1;fillColor=none;" vertex="1" parent="1">
          <mxGeometry x="438.6" y="100" width="90" height="360" as="geometry" />
        </mxCell>
        <mxCell id="-1uGAca-wLTkCwMJhFo_-40" value="" style="rounded=0;whiteSpace=wrap;html=1;fillColor=none;" vertex="1" parent="1">
          <mxGeometry x="125" y="100" width="90" height="360" as="geometry" />
        </mxCell>
        <mxCell id="-1uGAca-wLTkCwMJhFo_-41" value="" style="endArrow=classic;startArrow=classic;html=1;rounded=0;" edge="1" parent="1">
          <mxGeometry width="50" height="50" relative="1" as="geometry">
            <mxPoint x="50" y="400" as="sourcePoint" />
            <mxPoint x="50" y="180" as="targetPoint" />
            <Array as="points">
              <mxPoint x="50" y="290" />
            </Array>
          </mxGeometry>
        </mxCell>
        <mxCell id="-1uGAca-wLTkCwMJhFo_-42" value="" style="endArrow=classic;startArrow=classic;html=1;rounded=0;" edge="1" parent="1">
          <mxGeometry width="50" height="50" relative="1" as="geometry">
            <mxPoint x="360" y="350" as="sourcePoint" />
            <mxPoint x="360" y="180" as="targetPoint" />
          </mxGeometry>
        </mxCell>
        <mxCell id="-1uGAca-wLTkCwMJhFo_-43" value="并没有实际删除元素，只是将front指向下一个元素" style="text;html=1;align=left;verticalAlign=middle;whiteSpace=wrap;rounded=0;strokeWidth=6;fontSize=20;fontStyle=0" vertex="1" parent="1">
          <mxGeometry x="600" y="150" width="140" height="160" as="geometry" />
        </mxCell>
      </root>
    </mxGraphModel>
  </diagram>
</mxfile>
